<svg xmlns="http://www.w3.org/2000/svg" xmlns:xlink="http://www.w3.org/1999/xlink" width="3039.528" height="1045.673" viewBox="0 0 3039.528 1045.673">
  <defs>
    <linearGradient id="linear-gradient" x1="0.5" x2="0.5" y2="1" gradientUnits="objectBoundingBox">
      <stop offset="0" stop-color="#373736"/>
      <stop offset="1" stop-color="#121212"/>
    </linearGradient>
    <linearGradient id="linear-gradient-2" x1="0.5" x2="0.5" y2="1" gradientUnits="objectBoundingBox">
      <stop offset="0" stop-color="#23535c"/>
      <stop offset="1" stop-color="#14363b"/>
    </linearGradient>
  </defs>
  <g id="Ceramic-Logo" transform="translate(10896.346 7855)">
    <path id="Vereinigungsmenge_3" data-name="Vereinigungsmenge 3" d="M2855.921,378.24V312.32q0-9.6,9.6-9.6H2886q9.6,0,9.6,9.6V378.24c0,35.2,7.68,55.679,49.28,55.679s49.281-20.479,49.281-55.679c0-43.52-4.48-60.8-35.2-95.36l-64-71.68c-23.04-24.961-39.04-49.92-39.04-119.68C2855.921,33.92,2870,0,2944.88,0s88.96,33.92,88.96,91.52v65.92q0,9.6-9.6,9.6h-20.48q-9.6,0-9.6-9.6V91.52c0-35.2-7.68-55.68-49.281-55.68s-49.28,20.48-49.28,55.68c0,44.8,5.12,61.44,35.2,95.36l64,71.68c23.04,25.6,39.04,49.92,39.04,119.68,0,58.24-14.08,91.52-88.96,91.52S2855.921,436.48,2855.921,378.24Zm-1628.4,0V91.52c0-57.6,14.08-91.52,88.96-91.52s88.96,33.92,88.96,91.52v78.72q0,9.6-9.6,9.6h-20.48q-9.6,0-9.6-9.6V91.52c0-35.2-7.68-55.68-49.279-55.68s-49.28,20.48-49.28,55.68V378.24c0,35.2,7.681,55.679,49.28,55.679s49.279-20.479,49.279-55.679V299.52q0-9.6,9.6-9.6h20.48q9.6,0,9.6,9.6v78.72c0,58.24-14.08,91.52-88.96,91.52S1227.521,436.48,1227.521,378.24ZM0,378.24V91.52C0,33.92,14.081,0,88.961,0s88.96,33.92,88.96,91.52v78.72q0,9.6-9.6,9.6H147.84q-9.6,0-9.6-9.6V91.52c0-35.2-7.68-55.68-49.28-55.68S39.68,56.32,39.68,91.52V378.24c0,35.2,7.681,55.679,49.28,55.679s49.28-20.479,49.28-55.679V299.52q0-9.6,9.6-9.6h20.48q9.6,0,9.6,9.6v78.72c0,58.24-14.08,91.52-88.96,91.52S0,436.48,0,378.24Zm2713.2,88.32q-9.6,0-9.6-9.6V39.04h-77.44q-9.6,0-9.6-9.6V12.8q0-9.6,9.6-9.6H2820.72q9.6,0,9.6,9.6V29.44q0,9.6-9.6,9.6H2743.28V456.96q0,9.6-9.6,9.6Zm-117.76,0c-5.12,0-8.32-1.92-10.24-7.04L2505.84,252.8h-27.52V456.96q0,9.6-9.6,9.6h-20.48q-9.6,0-9.6-9.6V12.8q0-9.6,9.6-9.6h62.08c84.479,0,99.84,38.4,99.84,103.039v43.52c0,54.4-10.88,89.6-62.72,99.84l78.72,205.44c1.92,5.76-.64,10.88-6.4,11.52ZM2478.32,216.96h32c51.2,0,60.16-24.321,60.16-67.2V106.24c0-42.24-8.959-67.2-60.16-67.2h-32Zm-220.8,249.6q-9.6,0-9.6-9.6V12.8q0-9.6,9.6-9.6h139.52q9.6,0,9.6,9.6V29.44q0,9.6-9.6,9.6H2287.6V216.96h85.12q9.6,0,9.6,9.6V243.2q0,9.6-9.6,9.6H2287.6V430.72h109.44q9.6,0,9.6,9.6V456.96q0,9.6-9.6,9.6Zm-209.921,0q-9.6,0-9.6-9.6V12.8q0-9.6,9.6-9.6h62.08c84.48,0,99.841,38.4,99.841,103.039v61.44c0,65.28-15.36,103.04-99.841,103.04h-32V456.96q0,9.6-9.6,9.6Zm30.081-231.68h32c51.2,0,60.16-24.32,60.16-67.2V106.24c0-42.24-8.96-67.2-60.16-67.2h-32ZM1577.6,466.56q-9.6,0-9.6-9.6V12.8q0-9.6,9.6-9.6h139.52q9.6,0,9.6,9.6V29.44q0,9.6-9.6,9.6H1607.681V216.96H1692.8q9.6,0,9.6,9.6V243.2q0,9.6-9.6,9.6h-85.119V430.72H1717.12q9.6,0,9.6,9.6V456.96q0,9.6-9.6,9.6Zm-431.36,0q-9.6,0-9.6-9.6V12.8q0-9.6,9.6-9.6h20.48q9.6,0,9.6,9.6V456.96q0,9.6-9.6,9.6Zm-90.879,0q-9.6,0-9.6-9.6V172.8l3.84-90.88h-2.56l-44.16,277.12c-1.28,6.4-3.839,10.24-10.879,10.24H953.6c-7.04,0-9.6-3.839-10.88-10.24L898.56,81.92H896l3.84,90.88V456.96q0,9.6-9.6,9.6H869.76q-9.6,0-9.6-9.6V12.8q0-9.6,9.6-9.6H908.8c6.4,0,9.6,2.56,10.88,9.6l35.2,208,16.64,108.8h2.56l16.64-108.8,35.2-208c1.28-7.04,4.479-9.6,10.879-9.6h39.04q9.6,0,9.6,9.6V456.96q0,9.6-9.6,9.6Zm-258.56,0c-5.76,0-8.96-3.84-9.6-9.6L772.481,361.6H679.04L664.321,456.96c-.64,5.12-3.2,9.6-9.6,9.6H631.68c-5.76,0-8.32-4.48-7.68-10.24l68.48-442.88c.64-6.4,3.839-10.239,10.88-10.239h44.8c7.041,0,10.24,3.839,10.88,10.239l68.48,442.88c.64,6.4-2.56,10.24-7.68,10.24Zm-85.76-314.88L684.16,325.76h82.561L740.48,151.68l-13.44-108.8h-2.56Zm-134.4,314.88c-5.12,0-8.32-1.92-10.24-7.04L487.04,252.8H459.52V456.96q0,9.6-9.6,9.6H429.44q-9.6,0-9.6-9.6V12.8q0-9.6,9.6-9.6h62.08C576,3.2,591.36,41.6,591.36,106.24v43.52c0,54.4-10.88,89.6-62.72,99.84l78.72,205.44c1.92,5.76-.64,10.88-6.4,11.52ZM459.52,216.96h32c51.2,0,60.16-24.321,60.16-67.2V106.24c0-42.24-8.96-67.2-60.16-67.2h-32Zm-220.8,249.6q-9.6,0-9.6-9.6V12.8q0-9.6,9.6-9.6H378.24q9.6,0,9.6,9.6V29.44q0,9.6-9.6,9.6H268.8V216.96h85.12q9.6,0,9.6,9.6V243.2q0,9.6-9.6,9.6H268.8V430.72H378.24q9.6,0,9.6,9.6V456.96q0,9.6-9.6,9.6Z" transform="translate(-10895.4 -7650.56)" stroke="rgba(0,0,0,0)" stroke-width="1" fill="url(#linear-gradient)"/>
    <path id="Pfad_1045" data-name="Pfad 1045" d="M16.154-132.778V0h9.259V-132.778ZM60.479,0h9.259V-57.918a26.192,26.192,0,0,1,1.379-9.259C75.057-79,86.286-88.65,99.682-88.65c19.306,0,26,15.563,26,32.7V0h9.259V-57.13c0-35.066-23.837-39.6-32.7-39.6a35.586,35.586,0,0,0-19.109,5.319,34.835,34.835,0,0,0-13,13.79h-.394V-139.87H60.479ZM166.071,0h9.259V-52.2a64.668,64.668,0,0,1,.788-9.062c2.561-15.169,11.82-26.4,24.822-26.4a16.185,16.185,0,0,1,4.531.394v-9.062a24.137,24.137,0,0,0-3.743-.394c-13,0-22.852,9.456-26.989,21.276h-.394l-.394-19.109h-8.668c.394,9.062.788,18.912.788,28.368Zm163.9-73.875h-53.19V-124.9h56.342v-7.88h-65.6V0h68.753V-7.88H276.785V-66h53.19ZM347.311-94.56l32.7,46.295L345.341,0h10.638l16.548-24.034a213.084,213.084,0,0,0,11.82-17.73h.394c3.94,6.107,7.683,11.82,11.82,17.73L413.5,0h10.638L390.06-48.462l32.9-46.1H412.518L396.364-71.511c-3.743,5.319-7.289,10.441-11.032,16.154h-.394C381.392-61.07,378.24-66,374.1-71.511L357.949-94.56ZM443.644,39.006H452.9V-15.366h.394C459.8-3.94,471.815,2.167,485.408,2.167c22.852,0,42.946-17.139,42.946-51.023,0-27.777-16.351-47.871-40.582-47.871-16.548,0-28.171,7.486-34.869,20.094h-.394l-.788-17.927h-8.865c.394,8.865.788,18.321.788,30.141ZM452.9-55.751a38.522,38.522,0,0,1,1.379-8.077c4.137-15.563,17.533-25.216,31.323-25.216,21.473,0,33.293,19.306,33.293,40.582,0,25.216-12.411,42.749-34.081,42.749a31.955,31.955,0,0,1-31.126-24.034,45.857,45.857,0,0,1-.788-7.486Zm170.6,7.486a23.435,23.435,0,0,0,.394-5.713c0-13.593-5.91-42.749-36.839-42.749-24.428,0-42.552,19.7-42.552,51.22,0,27.777,16.942,47.477,44.128,47.477,16.548,0,26.2-3.94,29.747-5.91l-2.364-7.486c-5.319,2.561-12.411,5.319-26.2,5.319-19.5,0-36.051-11.82-36.051-42.158Zm-69.147-7.486c1.576-14.578,10.638-33.293,31.52-33.293,22.852,0,28.368,20.094,28.171,33.293ZM647.933,0h9.259V-52.2a64.661,64.661,0,0,1,.788-9.062c2.561-15.169,11.82-26.4,24.822-26.4a16.185,16.185,0,0,1,4.531.394v-9.062a24.137,24.137,0,0,0-3.743-.394c-13,0-22.852,9.456-26.989,21.276h-.394l-.394-19.109h-8.668c.394,9.062.788,18.912.788,28.368Zm66.783-118.988V-94.56H698.759v7.486h15.957v59.888c0,9.653,1.576,17.533,5.91,22.458,3.546,4.531,9.259,6.7,16.154,6.7A37.373,37.373,0,0,0,749.979-.2L748.8-7.486A34.066,34.066,0,0,1,737.962-5.91c-10.047,0-13.79-7.683-13.79-19.7V-87.074h26.989V-94.56H724.172v-27.383ZM841.978-48.265a23.435,23.435,0,0,0,.394-5.713c0-13.593-5.91-42.749-36.839-42.749-24.428,0-42.552,19.7-42.552,51.22,0,27.777,16.942,47.477,44.128,47.477,16.548,0,26.2-3.94,29.747-5.91l-2.364-7.486c-5.319,2.561-12.411,5.319-26.2,5.319-19.5,0-36.051-11.82-36.051-42.158Zm-69.147-7.486c1.576-14.578,10.638-33.293,31.52-33.293,22.852,0,28.368,20.094,28.171,33.293ZM919.4,0V-87.074h25.413V-94.56H919.4v-5.319c0-18.124,3.743-34.278,21.276-34.278a24.435,24.435,0,0,1,12.017,2.758l2.955-7.486c-2.758-1.576-8.077-3.152-14.184-3.152a29.636,29.636,0,0,0-20.882,8.274c-7.683,7.683-10.441,19.5-10.441,34.081v5.122H896.547v7.486H910.14V0Zm114.457-94.56H1024.6v58.9a33.931,33.931,0,0,1-1.97,10.441c-3.94,9.456-13.987,19.109-27.777,19.109-18.715,0-25.216-14.775-25.216-35.263V-94.56h-9.259V-39.6c0,35.854,20.094,41.764,32.111,41.764a36.677,36.677,0,0,0,32.505-18.912h.394L1025.976,0h8.668c-.394-7.289-.788-14.775-.788-23.049Zm-52.6-19.306c4.531,0,7.289-3.743,7.289-7.683,0-4.137-2.955-7.683-7.092-7.683a7.525,7.525,0,0,0-7.486,7.683C973.968-117.609,976.726-113.866,981.257-113.866Zm33.49,0c4.531,0,7.289-3.743,7.289-7.683,0-4.137-2.955-7.683-7.092-7.683a7.525,7.525,0,0,0-7.486,7.683C1007.458-117.609,1010.216-113.866,1014.747-113.866ZM1065.77,0h9.259V-52.2a64.66,64.66,0,0,1,.788-9.062c2.561-15.169,11.82-26.4,24.822-26.4a16.185,16.185,0,0,1,4.531.394v-9.062a24.138,24.138,0,0,0-3.743-.394c-13,0-22.852,9.456-26.989,21.276h-.394l-.394-19.109h-8.668c.394,9.062.788,18.912.788,28.368Zm101.455,0h9.259V-54.963l13.593-14.972L1240.509,0h11.426l-55.357-76.436,50.629-56.342h-11.623L1188.5-79.391c-3.546,4.137-7.486,8.668-11.229,13.79h-.788v-67.177h-9.259Zm171.193-48.265a23.435,23.435,0,0,0,.394-5.713c0-13.593-5.91-42.749-36.839-42.749-24.428,0-42.552,19.7-42.552,51.22,0,27.777,16.942,47.477,44.128,47.477,16.548,0,26.2-3.94,29.747-5.91l-2.364-7.486c-5.319,2.561-12.411,5.319-26.2,5.319-19.5,0-36.051-11.82-36.051-42.158Zm-69.147-7.486c1.576-14.578,10.638-33.293,31.52-33.293,22.852,0,28.368,20.094,28.171,33.293ZM1362.846,0h9.259V-52.2a64.66,64.66,0,0,1,.788-9.062c2.561-15.169,11.82-26.4,24.822-26.4a16.185,16.185,0,0,1,4.531.394v-9.062a24.138,24.138,0,0,0-3.743-.394c-13,0-22.852,9.456-26.989,21.276h-.394l-.394-19.109h-8.668c.394,9.062.788,18.912.788,28.368Zm118.2,0a169.75,169.75,0,0,1-1.379-22.458V-59.3c0-16.942-5.122-37.43-32.505-37.43-8.471,0-19.109,2.364-27.58,8.077l2.955,6.895c6.7-4.925,15.366-7.092,23.64-7.092,22.458-.2,24.231,18.518,24.231,27.974v2.364c-38.415-.394-57.721,12.805-57.721,34.672,0,12.608,8.865,26,27.777,26,15.169,0,25.61-8.471,30.141-15.76h.591L1472.575,0Zm-10.638-30.338a20.48,20.48,0,0,1-.985,5.713c-3.349,9.259-12.214,18.912-27.974,18.912-9.85,0-18.912-6.107-18.912-19.7,0-22.655,27.186-25.807,47.871-25.216ZM1510.4,0h9.259V-58.312a26.486,26.486,0,0,1,1.576-9.062c3.546-11.032,13.4-21.276,26.2-21.276,15.169,0,23.443,12.411,23.443,29.55V0h9.259V-60.676a27.642,27.642,0,0,1,1.773-9.259c3.546-10.047,13-18.715,24.822-18.715,16.351,0,24.625,12.608,24.625,33.884V0h9.259V-55.751c0-35.854-21.473-40.976-30.732-40.976-10.047,0-16.548,2.758-22.655,7.88a37.629,37.629,0,0,0-9.653,12.805h-.394c-3.94-12.017-13.987-20.685-27.186-20.685-15.563,0-24.625,8.077-30.535,18.912h-.394l-.788-16.745h-8.668c.394,7.486.788,13.987.788,22.655ZM1681,0V-94.56h-9.259V0Zm-4.531-129.823c-4.334,0-7.683,3.94-7.683,8.274s2.955,8.077,7.289,8.077c4.925,0,7.88-3.743,7.88-8.077C1683.956-126.08,1681-129.823,1676.47-129.823Zm45.7-10.047h-9.259V0h9.259V-39.4l9.653-10.244L1770.439,0h11.426l-43.537-55.357,38.218-39.2H1765.12l-33.293,35.066c-2.955,3.152-6.9,7.486-9.259,10.441h-.394ZM1808.263,0l.591-17.139h.394c7.486,13.2,18.715,19.306,33.884,19.306,20.685,0,42.158-16.745,42.158-50.432,0-28.565-16.548-48.462-40.385-48.462-16.745,0-28.368,7.486-34.672,19.7h-.394V-139.87h-9.259V-22.064c0,7.092-.394,15.366-.788,22.064Zm1.576-55.357a32.081,32.081,0,0,1,1.182-8.274c4.531-15.76,17.73-25.413,31.52-25.413,21.473,0,33.293,19.306,33.293,40.976,0,24.625-12.411,42.355-34.081,42.355-14.775,0-26.989-9.456-31.126-23.837a43.532,43.532,0,0,1-.788-6.895Zm170.6,7.092a23.435,23.435,0,0,0,.394-5.713c0-13.593-5.91-42.749-36.839-42.749-24.428,0-42.552,19.7-42.552,51.22,0,27.777,16.942,47.477,44.128,47.477,16.548,0,26.2-3.94,29.747-5.91l-2.364-7.486c-5.319,2.561-12.411,5.319-26.2,5.319-19.5,0-36.051-11.82-36.051-42.158Zm-69.147-7.486c1.576-14.578,10.638-33.293,31.52-33.293,22.852,0,28.368,20.094,28.171,33.293Zm86.286,51.22a45.893,45.893,0,0,0,24.034,6.5c19.306,0,31.914-10.835,31.914-26.989,0-14.381-9.062-22.064-24.428-27.974-12.8-5.319-19.5-9.653-19.5-19.5,0-8.668,6.3-16.351,18.321-16.351,9.456,0,15.563,3.349,18.715,5.713l3.743-7.683a37.5,37.5,0,0,0-20.882-5.91c-18.518,0-29.156,12.017-29.156,25.61,0,11.426,8.471,19.9,24.034,25.807,13.593,5.516,19.9,11.032,19.9,21.473,0,9.85-7.092,17.927-22.064,17.927-8.471,0-16.154-3.349-21.276-6.5ZM2141-11.426c-5.122,2.167-12.411,5.319-23.64,5.319-21.867,0-37.43-16.154-37.43-40.779,0-22.261,13-41.764,38.415-41.764a45.877,45.877,0,0,1,22.458,5.516l3.349-7.683c-3.743-2.561-13.2-5.91-24.822-5.91-28.368,0-48.856,20.488-48.856,50.432,0,28.565,18.124,48.265,45.507,48.265,13.593,0,23.443-3.94,27.58-6.107ZM2166.212,0h9.259V-57.918a26.2,26.2,0,0,1,1.379-9.259c3.94-11.82,15.169-21.473,28.565-21.473,19.306,0,26,15.563,26,32.7V0h9.259V-57.13c0-35.066-23.837-39.6-32.7-39.6a35.585,35.585,0,0,0-19.109,5.319,34.833,34.833,0,0,0-13,13.79h-.394V-139.87h-9.259Zm114.851,0V-94.56H2271.8V0Zm-4.531-129.823c-4.334,0-7.683,3.94-7.683,8.274s2.955,8.077,7.289,8.077c4.925,0,7.88-3.743,7.88-8.077C2284.018-126.08,2281.063-129.823,2276.532-129.823Zm99.091,118.4c-5.122,2.167-12.411,5.319-23.64,5.319-21.867,0-37.43-16.154-37.43-40.779,0-22.261,13-41.764,38.415-41.764a45.877,45.877,0,0,1,22.458,5.516l3.349-7.683c-3.743-2.561-13.2-5.91-24.822-5.91-28.368,0-48.856,20.488-48.856,50.432,0,28.565,18.124,48.265,45.507,48.265,13.593,0,23.443-3.94,27.58-6.107ZM2400.839,0h9.259V-57.918a26.2,26.2,0,0,1,1.379-9.259c3.94-11.82,15.169-21.473,28.565-21.473,19.306,0,26,15.563,26,32.7V0h9.259V-57.13c0-35.066-23.837-39.6-32.7-39.6a35.585,35.585,0,0,0-19.109,5.319,34.833,34.833,0,0,0-13,13.79h-.394V-139.87h-9.259Zm109.138-118.988V-94.56H2494.02v7.486h15.957v59.888c0,9.653,1.576,17.533,5.91,22.458,3.546,4.531,9.259,6.7,16.154,6.7A37.375,37.375,0,0,0,2545.24-.2l-1.182-7.289a34.066,34.066,0,0,1-10.835,1.576c-10.047,0-13.79-7.683-13.79-19.7V-87.074h26.989V-94.56h-26.989v-27.383ZM2640-94.56h-9.259v58.9a33.927,33.927,0,0,1-1.97,10.441c-3.94,9.456-13.987,19.109-27.777,19.109-18.715,0-25.216-14.775-25.216-35.263V-94.56h-9.259V-39.6c0,35.854,20.094,41.764,32.111,41.764a36.677,36.677,0,0,0,32.5-18.912h.394L2632.117,0h8.668c-.394-7.289-.788-14.775-.788-23.049ZM2671.911,0h9.259V-58.509a28.251,28.251,0,0,1,1.379-8.471c3.743-12.214,14.972-21.67,28.368-21.67,19.5,0,26.2,15.563,26.2,32.7V0h9.259V-56.736c0-35.46-23.837-39.991-32.9-39.991-15.563,0-27.383,8.668-32.5,19.306h-.394l-.788-17.139h-8.668c.394,7.486.788,13.987.788,22.655Zm172.966-94.56-.394,15.957h-.394c-3.94-7.88-13.2-18.124-31.914-18.124-20.882,0-42.552,17.336-42.552,50.235C2769.623-20.685,2786.368,0,2810.2,0c16.942,0,27.974-8.668,32.9-18.321h.394v13.4c0,27.974-14.381,38.218-34.278,38.218-12.214,0-21.473-3.546-27.974-7.88L2777.9,33.1c7.092,5.319,19.109,8.077,29.944,8.077,10.638,0,23.443-2.955,32.111-11.229,7.88-7.486,12.8-19.5,12.8-43.734V-70.132c0-9.85.394-17.336.788-24.428ZM2843.5-39.2a29.176,29.176,0,0,1-1.773,10.047C2837-15.563,2825.177-7.88,2812.569-7.88c-22.261,0-33.49-18.321-33.49-39.6,0-25.019,13.79-41.567,33.884-41.567,15.366,0,25.413,10.244,29.353,21.67a32.56,32.56,0,0,1,1.182,9.062Zm112.29-9.062a23.435,23.435,0,0,0,.394-5.713c0-13.593-5.91-42.749-36.839-42.749-24.428,0-42.552,19.7-42.552,51.22,0,27.777,16.942,47.477,44.128,47.477,16.548,0,26.2-3.94,29.747-5.91l-2.364-7.486c-5.319,2.561-12.411,5.319-26.2,5.319-19.5,0-36.051-11.82-36.051-42.158Zm-69.147-7.486c1.576-14.578,10.638-33.293,31.52-33.293,22.852,0,28.368,20.094,28.171,33.293ZM2980.216,0h9.259V-58.509a28.251,28.251,0,0,1,1.379-8.471c3.743-12.214,14.972-21.67,28.368-21.67,19.5,0,26.2,15.563,26.2,32.7V0h9.259V-56.736c0-35.46-23.837-39.991-32.9-39.991-15.563,0-27.383,8.668-32.5,19.306h-.394L2988.1-94.56h-8.668c.394,7.486.788,13.987.788,22.655Z" transform="translate(-10912 -6851)" fill="#555554" stroke="rgba(0,0,0,0)" stroke-width="1"/>
    <path id="Vereinigungsmenge_2" data-name="Vereinigungsmenge 2" d="M29,810a7,7,0,0,1-7-7L155.466,438.632,0,7A7,7,0,0,1,7,0H60a7,7,0,0,1,7,7L189.248,346.406,285,85a7,7,0,0,1,7-7h53a7,7,0,0,1,7,7L222.466,438.632,304,665a7,7,0,0,1-7,7H244a7,7,0,0,1-7-7L188.684,530.858,89,803a7,7,0,0,1-7,7Z" transform="translate(-9201 -7855)" fill="url(#linear-gradient-2)"/>
  </g>
</svg>
