<svg xmlns="http://www.w3.org/2000/svg" width="32.159" height="47.078" viewBox="0 0 32.159 47.078">
    <defs>
        <clipPath id="zd5pi9vf3a">
            <path data-name="Rechteck 567" style="fill:#062b4d" d="M0 0h32.159v47.078H0z"/>
        </clipPath>
    </defs>
    <g data-name="Gruppe 1004" style="clip-path:url(#zd5pi9vf3a)">
        <path data-name="Pfad 736" d="M16.079 0A16.1 16.1 0 0 0 0 16.076c0 8.568 14.7 29.08 15.323 29.949l.756 1.05.756-1.05c.626-.869 15.323-21.381 15.323-29.949A16.1 16.1 0 0 0 16.079 0m0 43.867c-1.292-1.852-4.051-5.891-6.781-10.439-4.864-8.1-7.434-14.1-7.434-17.349a14.216 14.216 0 0 1 28.432 0c0 3.25-2.571 9.249-7.434 17.349a190.652 190.652 0 0 1-6.781 10.439" transform="translate(0 .003)" style="fill:#062b4d"/>
        <path data-name="Pfad 737" d="M184.281 146.818a11.357 11.357 0 1 0 11.357 11.357 11.369 11.369 0 0 0-11.357-11.357m0 20.85a9.493 9.493 0 1 1 9.493-9.493 9.5 9.5 0 0 1-9.493 9.493" transform="translate(-168.201 -142.808)" style="fill:#062b4d"/>
    </g>
</svg>
